<?xml version="1.0" encoding="UTF-8"?>
<svg xmlns="http://www.w3.org/2000/svg" viewBox="0 0 360 360" role="img" aria-labelledby="title desc">
  <title id="title">Het Model Moreel Vakmanschap</title>
  <desc id="desc">Vijf stappen rond de kern met gesprekskaarten</desc>
  <defs>
    <marker id="arrow" markerWidth="8" markerHeight="8" refX="6" refY="4" orient="auto">
      <path d="M0,0 L8,4 L0,8 Z" fill="#c4bdb2"/>
    </marker>
  </defs>
  <rect width="360" height="360" fill="#fdfcfa" rx="12"/>
  <circle cx="180" cy="180" r="126" fill="none" stroke="#e0dbd2" stroke-width="1"/>
  <polygon points="180,122 158,168 206,168" fill="#993C1D" opacity="0.85"/>
  <polygon points="238,146 198,178 218,218" fill="#6B4C9A" opacity="0.85"/>
  <polygon points="226,238 178,218 178,268" fill="#0F6E56" opacity="0.85"/>
  <polygon points="134,238 162,218 142,178" fill="#993556" opacity="0.85"/>
  <polygon points="122,146 162,178 142,138" fill="#854F0B" opacity="0.85"/>
  <line x1="180" y1="180" x2="180" y2="68" stroke="#d5cfc6" stroke-width="1" stroke-dasharray="4 4"/>
  <line x1="180" y1="180" x2="286.5" y2="145.5" stroke="#d5cfc6" stroke-width="1" stroke-dasharray="4 4"/>
  <line x1="180" y1="180" x2="243" y2="270.5" stroke="#d5cfc6" stroke-width="1" stroke-dasharray="4 4"/>
  <line x1="180" y1="180" x2="117" y2="270.5" stroke="#d5cfc6" stroke-width="1" stroke-dasharray="4 4"/>
  <line x1="180" y1="180" x2="73.5" y2="145.5" stroke="#d5cfc6" stroke-width="1" stroke-dasharray="4 4"/>
  <path d="M 206 78 A 120 120 0 0 1 278 132" fill="none" stroke="#c4bdb2" stroke-width="3" marker-end="url(#arrow)"/>
  <path d="M 298 168 A 120 120 0 0 1 260 258" fill="none" stroke="#c4bdb2" stroke-width="3" marker-end="url(#arrow)"/>
  <path d="M 228 292 A 120 120 0 0 1 132 292" fill="none" stroke="#c4bdb2" stroke-width="3" marker-end="url(#arrow)"/>
  <path d="M 62 258 A 120 120 0 0 1 82 132" fill="none" stroke="#c4bdb2" stroke-width="3" marker-end="url(#arrow)"/>
  <path d="M 100 78 A 120 120 0 0 1 154 68" fill="none" stroke="#c4bdb2" stroke-width="3" marker-end="url(#arrow)"/>
  <circle cx="180" cy="180" r="46" fill="#F3EEFC" stroke="#6B4C9A" stroke-width="3"/>
  <text text-anchor="middle" fill="#185FA5" font-family="DM Sans, Arial, Helvetica, sans-serif">
    <tspan x="180" y="168" font-size="15" font-weight="700">KERN</tspan>
    <tspan x="180" dy="14" font-size="9.5" font-weight="500">Gesprekskaarten</tspan>
    <tspan x="180" dy="11" font-size="7.5" font-weight="400">Morele situaties</tspan>
    <tspan x="180" dy="10" font-size="7.5" font-weight="400">uit de praktijk</tspan>
  </text>
  <circle cx="180" cy="68" r="32" fill="#185FA5"/>
  <text text-anchor="middle" fill="#ffffff" font-family="DM Sans, Arial, Helvetica, sans-serif">
    <tspan x="180" y="64" font-size="13" font-weight="600">1</tspan>
    <tspan x="180" dy="14" font-size="11" font-weight="500">Zien</tspan>
  </text>
  <circle cx="286.5" cy="145.5" r="32" fill="#FFF8F0" stroke="#854F0B" stroke-width="2.5"/>
  <text text-anchor="middle" fill="#854F0B" font-family="DM Sans, Arial, Helvetica, sans-serif">
    <tspan x="286.5" y="141.5" font-size="13" font-weight="600">2</tspan>
    <tspan x="286.5" dy="14" font-size="11" font-weight="500">Voelen</tspan>
  </text>
  <circle cx="243" cy="270.5" r="32" fill="#FBEAF0" stroke="#993556" stroke-width="2.5"/>
  <text text-anchor="middle" fill="#993556" font-family="DM Sans, Arial, Helvetica, sans-serif">
    <tspan x="243" y="266.5" font-size="13" font-weight="600">3</tspan>
    <tspan x="243" dy="14" font-size="11" font-weight="500">Wegen</tspan>
  </text>
  <circle cx="117" cy="270.5" r="32" fill="#E1F5EE" stroke="#0F6E56" stroke-width="2.5"/>
  <text text-anchor="middle" fill="#0F6E56" font-family="DM Sans, Arial, Helvetica, sans-serif">
    <tspan x="117" y="266.5" font-size="13" font-weight="600">4</tspan>
    <tspan x="117" dy="14" font-size="11" font-weight="500">Handelen</tspan>
  </text>
  <circle cx="73.5" cy="145.5" r="32" fill="#FAEEDA" stroke="#993C1D" stroke-width="2.5"/>
  <text text-anchor="middle" fill="#993C1D" font-family="DM Sans, Arial, Helvetica, sans-serif">
    <tspan x="73.5" y="141.5" font-size="13" font-weight="600">5</tspan>
    <tspan x="73.5" dy="14" font-size="11" font-weight="500">Volhouden</tspan>
  </text>
</svg>
